<?xml version="1.0" encoding="UTF-8" standalone="no"?>
<!-- Created with Inkscape (http://www.inkscape.org/) -->

<svg
   width="73.731216mm"
   height="81.911835mm"
   viewBox="0 0 73.731216 81.911835"
   version="1.1"
   id="svg5"
   xml:space="preserve"
   sodipodi:docname="El-Rohi.svg"
   inkscape:version="1.2.1 (9c6d41e410, 2022-07-14)"
   xmlns:inkscape="http://www.inkscape.org/namespaces/inkscape"
   xmlns:sodipodi="http://sodipodi.sourceforge.net/DTD/sodipodi-0.dtd"
   xmlns="http://www.w3.org/2000/svg"
   xmlns:svg="http://www.w3.org/2000/svg"><sodipodi:namedview
     id="namedview7"
     pagecolor="#ffffff"
     bordercolor="#000000"
     borderopacity="0.25"
     inkscape:showpageshadow="2"
     inkscape:pageopacity="0.0"
     inkscape:pagecheckerboard="0"
     inkscape:deskcolor="#d1d1d1"
     inkscape:document-units="mm"
     showgrid="false"
     inkscape:zoom="1.5623016"
     inkscape:cx="288.67666"
     inkscape:cy="916.59639"
     inkscape:window-width="1920"
     inkscape:window-height="1046"
     inkscape:window-x="-11"
     inkscape:window-y="-11"
     inkscape:window-maximized="1"
     inkscape:current-layer="layer1" /><defs
     id="defs2" /><g
     inkscape:label="Layer 1"
     inkscape:groupmode="layer"
     id="layer1"
     transform="translate(120.5704,-316.51717)"><g
       style="fill:none;stroke:#a02c2c"
       id="g19201"
       transform="matrix(4.0951116,0,0,4.0951116,-132.84613,312.42206)"
       inkscape:export-filename="..\..\Desktop\El Rohi ltd\CSS_HTML\img\calendar.svg"
       inkscape:export-xdpi="300"
       inkscape:export-ydpi="300"><path
         id="Vector"
         d="M 4,8 H 20 M 4,8 v 8.8002 c 0,1.1201 0,1.6799 0.21799,2.1077 0.19174,0.3763 0.49748,0.6826 0.87381,0.8743 C 5.5192,20 6.07899,20 7.19691,20 h 9.60619 c 1.1179,0 1.6769,0 2.1043,-0.2178 0.3763,-0.1917 0.6831,-0.498 0.8748,-0.8743 C 20,18.4805 20,17.9215 20,16.8036 V 8 M 4,8 V 7.2002 C 4,6.08009 4,5.51962 4.21799,5.0918 4.40973,4.71547 4.71547,4.40973 5.0918,4.21799 5.51962,4 6.08009,4 7.2002,4 H 8 M 20,8 V 7.19691 C 20,6.07899 20,5.5192 19.7822,5.0918 19.5905,4.71547 19.2837,4.40973 18.9074,4.21799 18.4796,4 17.9203,4 16.8002,4 H 16 M 8,4 h 8 M 8,4 V 2 m 8,2 V 2 m -1,10 -4,4 -2,-2"
         stroke="#000000"
         stroke-width="2"
         stroke-linecap="round"
         stroke-linejoin="round"
         style="stroke:#a02c2c" /></g></g></svg>
