<?xml version="1.0" encoding="UTF-8" standalone="no"?>
<!-- Created with Inkscape (http://www.inkscape.org/) -->

<svg
   width="84.431831mm"
   height="51.450653mm"
   viewBox="0 0 84.431831 51.450653"
   version="1.1"
   id="svg5"
   xml:space="preserve"
   sodipodi:docname="El-Rohi.svg"
   inkscape:version="1.2.1 (9c6d41e410, 2022-07-14)"
   xmlns:inkscape="http://www.inkscape.org/namespaces/inkscape"
   xmlns:sodipodi="http://sodipodi.sourceforge.net/DTD/sodipodi-0.dtd"
   xmlns="http://www.w3.org/2000/svg"
   xmlns:svg="http://www.w3.org/2000/svg"><sodipodi:namedview
     id="namedview7"
     pagecolor="#ffffff"
     bordercolor="#000000"
     borderopacity="0.25"
     inkscape:showpageshadow="2"
     inkscape:pageopacity="0.0"
     inkscape:pagecheckerboard="0"
     inkscape:deskcolor="#d1d1d1"
     inkscape:document-units="mm"
     showgrid="false"
     inkscape:zoom="1.5623016"
     inkscape:cx="288.67666"
     inkscape:cy="916.59639"
     inkscape:window-width="1920"
     inkscape:window-height="1046"
     inkscape:window-x="-11"
     inkscape:window-y="-11"
     inkscape:window-maximized="1"
     inkscape:current-layer="layer1" /><defs
     id="defs2" /><g
     inkscape:label="Layer 1"
     inkscape:groupmode="layer"
     id="layer1"
     transform="translate(127.20813,-330.87481)"><g
       id="g21222"
       transform="matrix(0.16490593,0,0,0.16490593,-127.20813,314.3842)"
       style="fill:#782121"
       inkscape:export-filename="..\..\Desktop\El Rohi ltd\CSS_HTML\img\truck.svg"
       inkscape:export-xdpi="300"
       inkscape:export-ydpi="300">
	<path
   class="st0"
   d="m 489.121,100 h -248.4 c -12.641,0 -22.881,10.24 -22.881,22.88 v 246.56 h 118.468 l 0.733,0.002 v -0.002 h 0.24 c 0,-3.84 0.318,-7.6 0.959,-10.88 5.199,-30 31.199,-51.84 61.68,-51.84 30.48,0 56.48,21.84 61.68,51.6 0.641,3.52 0.961,7.28 0.961,11.12 h 30.879 c 10.24,0 18.56,-8.32 18.56,-18.64 V 122.88 C 512,110.24 501.76,100 489.121,100 Z M 464,160 v 32 H 272 v -32 z m -192,64 h 192 v 32 H 272 Z"
   id="path21214"
   style="fill:#782121" />
	<path
   class="st0"
   d="M 39.359,152.56 0,265.44 v 104 h 39.992 l 0.248,0.002 v -0.002 h 0.24 c 0,-3.84 0.32,-7.6 0.959,-10.88 5.281,-30 31.201,-51.84 61.682,-51.84 30.478,0 56.478,21.84 61.68,51.6 0.639,3.36 0.959,6.96 0.959,11.12 h 33.041 V 138 H 61.039 c -9.519,0 -18.078,5.76 -21.68,14.56 z m 129.762,92.64 c 0,5.6 -4.48,10 -10.082,10 H 50.721 c -7.121,0 -12,-7.2 -9.281,-13.76 L 62.801,174 c 1.52,-3.76 5.199,-6.24 9.279,-6.24 h 86.959 c 5.602,0 10.082,4.48 10.082,10 z"
   id="path21216"
   style="fill:#782121" />
	<path
   class="st0"
   d="m 103.121,326.72 c -20.961,0 -38.48,15.28 -41.922,35.28 -0.478,2.32 -0.719,4.88 -0.719,7.44 0,23.44 19.119,42.56 42.641,42.56 23.6,0 42.638,-19.12 42.638,-42.56 0,-2.56 -0.16,-5.12 -0.638,-7.44 -3.441,-20 -20.961,-35.28 -42,-35.28 z"
   id="path21218"
   style="fill:#782121" />
	<path
   class="st0"
   d="m 399.92,326.72 c -21.041,0 -38.48,15.28 -42,35.28 -0.4,2.32 -0.639,4.88 -0.639,7.44 0,23.44 19.119,42.56 42.639,42.56 23.6,0 42.64,-19.12 42.64,-42.56 0,-2.56 -0.16,-5.12 -0.64,-7.44 -3.52,-20 -20.959,-35.28 -42,-35.28 z"
   id="path21220"
   style="fill:#782121" />
</g></g><style
     type="text/css"
     id="style20210">
	.st0{fill:#000000;}
</style><style
     type="text/css"
     id="style21212">
	.st0{fill:#000000;}
</style></svg>
