<?xml version="1.0" encoding="UTF-8" standalone="no"?>
<!-- Created with Inkscape (http://www.inkscape.org/) -->

<svg
   width="87.152023mm"
   height="87.152039mm"
   viewBox="0 0 87.152023 87.152039"
   version="1.1"
   id="svg5"
   xml:space="preserve"
   sodipodi:docname="El-Rohi.svg"
   inkscape:version="1.2.1 (9c6d41e410, 2022-07-14)"
   xmlns:inkscape="http://www.inkscape.org/namespaces/inkscape"
   xmlns:sodipodi="http://sodipodi.sourceforge.net/DTD/sodipodi-0.dtd"
   xmlns="http://www.w3.org/2000/svg"
   xmlns:svg="http://www.w3.org/2000/svg"><sodipodi:namedview
     id="namedview7"
     pagecolor="#ffffff"
     bordercolor="#000000"
     borderopacity="0.25"
     inkscape:showpageshadow="2"
     inkscape:pageopacity="0.0"
     inkscape:pagecheckerboard="0"
     inkscape:deskcolor="#d1d1d1"
     inkscape:document-units="mm"
     showgrid="false"
     inkscape:zoom="1.5623016"
     inkscape:cx="288.67666"
     inkscape:cy="916.59639"
     inkscape:window-width="1920"
     inkscape:window-height="1046"
     inkscape:window-x="-11"
     inkscape:window-y="-11"
     inkscape:window-maximized="1"
     inkscape:current-layer="layer1" /><defs
     id="defs2" /><g
     inkscape:label="Layer 1"
     inkscape:groupmode="layer"
     id="layer1"
     transform="translate(128.71717,-314.10415)"><g
       id="g20216"
       transform="matrix(0.17021881,0,0,0.17021881,-128.71716,314.10415)"
       style="fill:#782121"
       inkscape:export-filename="..\..\Desktop\El Rohi ltd\CSS_HTML\img\world.svg"
       inkscape:export-xdpi="300"
       inkscape:export-ydpi="300">
	<path
   class="st0"
   d="M 511.434,239.204 C 507.296,175.241 479.64,117.58 437.016,74.987 419.334,57.302 399.065,42.178 376.796,30.247 340.806,10.962 299.67,0 256,0 185.365,0 121.273,28.67 74.984,74.988 28.663,121.273 0,185.361 0,256 0,326.639 28.663,390.735 74.984,437.013 121.273,483.329 185.365,512 256,512 c 10.178,0 20.211,-0.593 30.092,-1.757 25.423,-2.974 49.714,-9.666 72.278,-19.558 18.337,-8.004 35.573,-18.099 51.38,-29.968 9.642,-7.261 18.755,-15.194 27.266,-23.704 C 483.337,390.734 512,326.639 512,256 c 0,-5.653 -0.18,-11.252 -0.566,-16.796 z M 368.22,213.758 c -8.983,3.483 -31.286,4.653 -36.252,1.343 -4.943,-3.272 -17.416,-7.379 -22.444,-6.488 -5.032,0.89 1.604,8.416 -4.259,9.338 -5.86,0.898 -13.395,-3.208 -19.294,-7.44 -5.856,-4.162 -15.144,-5.794 -15.144,-5.794 -2.26,-0.273 -4.529,-0.547 -6.789,-0.804 -3.365,-6.762 -1.608,-22.096 -13.52,-18.63 -11.903,3.475 -51.197,10.416 -59.77,12.11 -8.573,1.726 -18.81,15.39 -25.63,25.532 -6.843,10.244 -25.481,42.241 -28.842,47.215 -3.365,5.059 -4.884,36.65 -4.79,44.833 0.085,8.339 37.322,42.623 49.022,44.107 11.759,1.616 43.697,-6.66 52.091,-8.417 8.429,-1.695 13.309,9.557 19.977,9.431 6.699,-0.117 14.948,2.983 8.159,12.689 -6.82,9.634 -6.851,14.413 -0.328,20.597 6.547,6.247 19.169,29.381 10.506,47.707 -8.604,18.341 -2.292,27.008 2.323,34.262 0.948,1.491 1.932,3.552 2.916,5.988 -6.637,0.594 -13.363,0.89 -20.152,0.89 -62.51,0 -118.985,-25.297 -159.97,-66.25 C 55.07,374.986 29.764,318.51 29.764,256 29.764,193.49 55.07,137.014 96.03,96.022 137.014,55.07 193.489,29.772 256,29.772 c 7.765,0 15.476,0.382 23.042,1.155 -1.488,1.101 -3.127,2.233 -5.032,3.365 -12.649,7.558 -17.744,10.931 -27.058,13.453 -9.35,2.506 -5.895,21.292 -2.475,24.713 3.428,3.42 11.076,-0.844 17.006,-4.225 5.922,-3.365 7.648,3.42 7.675,5.973 0,2.561 3.424,12.806 8.484,11.111 5.095,-1.695 13.457,-18.7 12.594,-21.222 -0.863,-2.569 -4.263,-9.378 1.608,-14.437 5.805,-5.028 12.465,-9.198 18.278,-13.368 1.811,0.406 3.596,0.891 5.352,1.39 -0.508,1.257 -1.667,2.802 -3.568,4.498 -6.64,5.871 -9.139,10.103 -9.139,10.103 0,0 -1.581,13.563 2.62,13.563 4.197,0.023 15.897,-2.436 21.698,-4.107 5.836,-1.67 5.868,3.428 0.058,5.091 -5.832,1.639 -10.834,4.169 -10.834,4.169 -0.835,2.522 -1.636,5.092 -2.471,7.613 -8.366,5.068 -11.7,12.719 -11.7,12.719 0,0 -37.123,0.804 -39.739,1.663 -2.53,0.812 -1.694,-7.675 -1.694,-7.675 0,0 2.498,-8.55 -1.729,-7.714 -4.197,0.866 -4.224,8.347 -4.224,8.55 -0.566,3.396 -1.132,6.816 -1.667,10.236 0,0 -16.194,3.396 -19.618,6.84 -3.392,3.428 -14.5,13.672 -17.053,15.421 -2.565,1.694 -11.134,4.286 -14.562,6.012 -3.424,1.734 10.271,7.722 10.271,10.275 0,2.561 0.031,14.554 -5.118,15.414 -5.126,0.866 -29.143,0.898 -29.143,0.898 0,0 -7.683,27.414 -5.954,29.982 1.726,2.553 12.856,8.51 19.708,7.652 6.844,-0.874 22.233,-8.573 22.233,-8.573 2.264,-5.153 4.556,-10.283 6.848,-15.421 4.552,-4.856 9.108,-9.713 13.664,-14.585 0,0.023 10.236,4.255 13.664,0.828 3.388,-3.42 10.15,-6.855 10.209,-6.855 0.027,0 6.781,12.781 11.017,14.468 4.251,1.709 11.841,8.487 12.676,12.75 0.836,4.255 1.667,11.907 4.197,10.174 2.534,-1.726 6.789,-11.93 6.789,-11.93 0,0 5.891,-3.428 -0.836,-6.817 -6.73,-3.365 -18.575,-15.272 -20.273,-17.834 -1.694,-2.561 -0.832,-10.244 5.091,-6.847 5.954,3.428 21.94,18.692 21.94,18.692 0,0 0.835,7.675 5.001,11.048 4.197,3.358 8.366,9.284 8.366,12.68 -0.031,3.396 -0.031,5.06 5.801,5.028 5.868,-0.031 3.424,-11.041 3.424,-13.57 0,-2.561 -0.8,-7.652 3.365,-7.652 4.166,-0.031 10.806,3.303 10.806,3.303 0,0 -4.228,16.974 4.044,19.434 8.339,2.444 33.82,-4.575 33.731,-0.351 -0.031,4.2 3.873,23.431 -5.153,26.905 z m 47.749,202.219 c -6.043,6.028 -12.414,11.728 -19.11,17.052 -0.597,-11.728 -0.445,-31.677 1.159,-39.477 1.995,-9.377 19.559,-16.459 27.832,-29.405 8.334,-13.008 21.257,-27.828 18.844,-46.863 -14.141,7.034 -22.116,10.603 -29.827,6.113 -7.71,-4.497 -15.178,-20.394 -18.247,-26.828 -2.862,-6.16 -29.408,-56.733 -24.587,-60.332 5.032,-3.31 28.515,39.212 37.565,51.76 9.142,12.742 5.535,28.975 24.618,18.52 19.047,-10.448 42.358,-29.178 45.543,-37.362 3.276,-8.151 -8.334,-28.842 -13.066,-23.846 -4.646,5.06 -18.576,7.152 -18.607,7.152 -5.954,-10.681 -11.997,-21.495 -18.126,-32.387 0,0 7.887,-0.149 15.538,6.215 7.71,6.403 22.92,14.109 31.942,15.413 1.218,0.195 2.678,0.219 4.346,0.133 0.296,4.669 0.448,9.401 0.448,14.164 0.002,62.511 -25.304,118.987 -66.265,159.978 z"
   id="path20212"
   style="fill:#782121" />
	<path
   class="st0"
   d="m 205.232,89.526 c 2.569,1.718 -1.698,9.432 -5.114,15.429 -3.42,5.996 -1.706,9.417 -1.706,9.417 0,0 16.272,-2.577 19.688,-4.295 3.416,-1.701 5.973,-12.844 3.4,-15.412 -2.569,-2.569 -11.138,-10.268 -11.15,-12.837 0,-2.569 0.839,-11.977 -2.596,-14.523 -3.42,-2.576 -11.119,2.28 -11.103,7.684 0.004,3.426 6.009,12.819 8.581,14.537 z"
   id="path20214"
   style="fill:#782121" />
</g></g><style
     type="text/css"
     id="style20210">
	.st0{fill:#000000;}
</style></svg>
